# xmcd
#
# Track frame offsets: 
#        150
#        26481
#        39941
#        61927
#        88716
#        95080
#        116561
#        136011
#        149624
#        175537
#        197343
#        217575
#
# Disc length: 3415 seconds
#
# Revision: 26
# Processed by: cddbd v1.5.2PL0 Copyright (c) Steve Scherf et al.
# Submitted via: ExactAudioCopy v0.99pb4
#
DISCID=960d550c
DTITLE=The Dresden Dolls - The Dresden Dolls
DYEAR=2003
DGENRE=Alternative
TTITLE0=Good Day
TTITLE1=Girl Anachronism
TTITLE2=Missed Me
TTITLE3=Half Jack
TTITLE4=672
TTITLE5=Coin-Operated Boy
TTITLE6=Gravity
TTITLE7=Bad Habit
TTITLE8=The Perfect Fit
TTITLE9=The Jeep Song
TTITLE10=Slide
TTITLE11=Truce
EXTD=
EXTT0=
EXTT1=
EXTT2=
EXTT3=
EXTT4=
EXTT5=
EXTT6=
EXTT7=
EXTT8=
EXTT9=
EXTT10=
EXTT11=
PLAYORDER=
